# xmcd CD database file
#
# Track frame offsets:
#	180
#	17161
#	39823
#	55122
#	68017
#	80730
#	98973
#	114837
#	132421
#	146803
#
# Disc length: 2093 seconds
#
# Revision: 0
# Processed by: cddbd v1.5.1PL0 Copyright (c) Steve Scherf et al.
# Submitted via: CDex 1.51
#
DISCID=82082b0a
DTITLE=Nace Brothers - Club 15
DYEAR=1995
DGENRE=Blues
TTITLE0=Bring Myself to Words
TTITLE1=Space in Your Heart
TTITLE2=Strung Out
TTITLE3=Heart Must Be Stone
TTITLE4=Those Days Are Gone
TTITLE5=Real Blind Love
TTITLE6=Club 15
TTITLE7=She Looked Like the Sun
TTITLE8=No Good Woman
TTITLE9=Heaven
EXTD=YEAR: 1995
EXTT0=
EXTT1=
EXTT2=
EXTT3=
EXTT4=
EXTT5=
EXTT6=
EXTT7=
EXTT8=
EXTT9=
PLAYORDER=
